<svg xmlns="http://www.w3.org/2000/svg" data-name="Layer 1" viewBox="0 0 100 125" x="0px" y="0px"><title>Vehicles</title><path d="M88.16,24.93a1,1,0,0,0,0-.18h0A1.16,1.16,0,0,0,88.16,24.93Z"/><path d="M90.73,24.75H88.12a1,1,0,0,1,0,.18,1.16,1.16,0,0,1,0-.18h0a3,3,0,0,0-2.88-2.26H14.77a3,3,0,0,0-2.89,2.26,1.16,1.16,0,0,1,0,.18,1,1,0,0,1,0-.18H9.27A9.27,9.27,0,0,0,0,34V59.14A8.07,8.07,0,0,0,7.78,67.2a12,12,0,0,1,24,0H65.44a12,12,0,0,1,24,0H92a8,8,0,0,0,8-7.95V34A9.27,9.27,0,0,0,90.73,24.75ZM30.78,48.05a.7.7,0,0,1-.7.7h-21a.7.7,0,0,1-.7-.7V33a.7.7,0,0,1,.7-.7h21a.7.7,0,0,1,.7.7Zm31.12,0a.67.67,0,0,1-.67.67H40.15a.67.67,0,0,1-.68-.67V33a.67.67,0,0,1,.68-.67H61.23a.67.67,0,0,1,.67.67Zm29.75,0a.68.68,0,0,1-.68.67H69.9a.68.68,0,0,1-.68-.67V33a.68.68,0,0,1,.68-.67H91a.68.68,0,0,1,.68.67Z"/><path d="M19.8,56.92A10.3,10.3,0,1,0,30.1,67.21,10.29,10.29,0,0,0,19.8,56.92Zm0,15.1a4.81,4.81,0,1,1,4.8-4.81A4.82,4.82,0,0,1,19.8,72Z"/><path d="M77.46,56.92A10.3,10.3,0,1,0,87.75,67.21,10.29,10.29,0,0,0,77.46,56.92Zm0,15.1a4.81,4.81,0,1,1,4.8-4.81A4.82,4.82,0,0,1,77.46,72Z"/><text x="0" y="115" fill="#000000" font-size="5px" font-weight="bold" font-family="'Helvetica Neue', Helvetica, Arial-Unicode, Arial, Sans-serif">Created by Rainbow Designs</text><text x="0" y="120" fill="#000000" font-size="5px" font-weight="bold" font-family="'Helvetica Neue', Helvetica, Arial-Unicode, Arial, Sans-serif">from the Noun Project</text></svg>