<svg xmlns="http://www.w3.org/2000/svg" xmlns:xlink="http://www.w3.org/1999/xlink" version="1.1" x="0px" y="0px" viewBox="0 0 32 40" style="enable-background:new 0 0 32 32;" xml:space="preserve"><style type="text/css">
	.st0{display:none;}
	.st1{display:inline;}
</style><g><path d="M16.9,10.225v-1.47h3.97c0.33,0,0.6-0.27,0.6-0.6v-3.43c0-0.33-0.27-0.6-0.6-0.6H16c-0.5,0-0.9,0.4-0.9,0.9v5.2l-5.39,3.77   v13.88h4.05v-5.53c0-0.35,0.29-0.64,0.64-0.64h3.2c0.35,0,0.64,0.29,0.64,0.64v5.53h4.05v-13.88L16.9,10.225z M16,16.995   c-0.67,0-1.21-0.54-1.21-1.21s0.54-1.21,1.21-1.21s1.21,0.54,1.21,1.21S16.67,16.995,16,16.995z"/><path d="M29.96,18.335l-2.06-4.11c-0.07-0.14-0.22-0.23-0.37-0.23h-3.741v4.94h5.791C29.89,18.935,30.09,18.605,29.96,18.335z"/><path d="M8.211,13.995H4.47c-0.15,0-0.3,0.09-0.37,0.23l-2.06,4.11c-0.13,0.27,0.07,0.6,0.38,0.6h5.791V13.995z"/><path d="M23.789,20.435v7.43h3.871c0.38,0,0.69-0.3,0.69-0.68v-6.75H23.789z"/><path d="M3.65,20.435v6.75c0,0.38,0.31,0.68,0.69,0.68h3.871v-7.43H3.65z"/></g><text x="0" y="47" fill="#000000" font-size="5px" font-weight="bold" font-family="'Helvetica Neue', Helvetica, Arial-Unicode, Arial, Sans-serif">Created by Rikas Dzihab</text><text x="0" y="52" fill="#000000" font-size="5px" font-weight="bold" font-family="'Helvetica Neue', Helvetica, Arial-Unicode, Arial, Sans-serif">from the Noun Project</text></svg>