<svg xmlns="http://www.w3.org/2000/svg" xmlns:xlink="http://www.w3.org/1999/xlink" version="1.1" x="0px" y="0px" viewBox="0 0 100 125" enable-background="new 0 0 100 100" xml:space="preserve"><g><path fill-rule="evenodd" clip-rule="evenodd" d="M25.578,72.734c-4.938,0-8.957,4.018-8.957,8.957s4.019,8.957,8.957,8.957   s8.957-4.018,8.957-8.957S30.517,72.734,25.578,72.734z M25.578,85.678c-2.195,0-3.986-1.791-3.986-3.986s1.791-3.986,3.986-3.986   c2.196,0,3.987,1.791,3.987,3.986S27.774,85.678,25.578,85.678z"/><path fill-rule="evenodd" clip-rule="evenodd" d="M52.063,72.734c-4.938,0-8.957,4.018-8.957,8.957s4.019,8.957,8.957,8.957   s8.957-4.018,8.957-8.957S57.001,72.734,52.063,72.734z M52.063,85.678c-2.195,0-3.986-1.791-3.986-3.986s1.791-3.986,3.986-3.986   c2.196,0,3.987,1.791,3.987,3.986S54.259,85.678,52.063,85.678z"/><path fill-rule="evenodd" clip-rule="evenodd" d="M78.547,72.734c-4.938,0-8.957,4.018-8.957,8.957s4.019,8.957,8.957,8.957   s8.957-4.018,8.957-8.957S83.485,72.734,78.547,72.734z M78.547,85.678c-2.195,0-3.986-1.791-3.986-3.986s1.791-3.986,3.986-3.986   c2.196,0,3.987,1.791,3.987,3.986S80.743,85.678,78.547,85.678z"/><path fill-rule="evenodd" clip-rule="evenodd" d="M43.128,22.916c-0.436,0.791-0.683,1.695-0.683,2.654   c0,1.559,0.651,2.969,1.703,3.989c1.043,1.011,2.476,1.636,4.052,1.636c0.656,0,1.301-0.111,1.908-0.322   c0.287,1.624,1.092,3.076,2.241,4.191c1.446,1.402,3.438,2.27,5.63,2.27c1.511,0,2.964-0.422,4.211-1.178   c0.913-0.553,1.711-1.283,2.336-2.156c0.825-1.15,0.665-2.174,1.817-3.16c0.628-0.539,1.448-0.86,2.336-0.86   c0.99,0,1.888,0.401,2.536,1.05h0.006c0.618,0.619,1.011,1.469,1.042,2.414c-0.007,2.021-0.019,4.041-0.019,6.076v0.014h7.893   c0-4.211,0.037-8.422,0.037-12.633c0-2.48-1.035-4.729-2.708-6.355c-1.662-1.615-3.952-2.615-6.476-2.615   c-0.888,0-1.76,0.127-2.592,0.366c-0.496-1.271-1.344-2.347-2.414-3.134c-1.229-0.903-2.752-1.428-4.368-1.428   c-1.007,0-1.996,0.207-2.909,0.598l-0.053,0.022c-0.446-0.919-1.053-1.751-1.785-2.462c-1.62-1.57-3.852-2.541-6.309-2.541   s-4.688,0.971-6.307,2.542c-1.63,1.58-2.639,3.764-2.639,6.177c0,1.361,0.328,2.687,0.935,3.877   C42.721,22.281,42.914,22.605,43.128,22.916z"/><polygon fill-rule="evenodd" clip-rule="evenodd" points="80.151,54.676 80.151,47.343 82.261,47.343 82.261,41.841 80.151,41.841    71.482,41.841 69.373,41.841 69.373,47.343 71.482,47.343 71.482,54.676  "/><path fill-rule="evenodd" clip-rule="evenodd" d="M93.837,77.344h-3.696c1.646-2.076,2.63-4.695,2.63-7.533   c0-6.695-5.478-12.172-12.171-12.172H46.458V38.667c-14.549,0-29.086-0.013-43.623-0.013l3.656,6.211h3.967v32.478h-0.015V84h3.406   c-0.147-0.748-0.229-1.52-0.229-2.309c0-6.594,5.364-11.957,11.957-11.957s11.957,5.363,11.957,11.957   c0,0.789-0.081,1.561-0.229,2.309h3.027c-0.147-0.748-0.229-1.52-0.229-2.309c0-6.594,5.364-11.957,11.957-11.957   S64.02,75.098,64.02,81.691c0,0.789-0.081,1.561-0.229,2.309h3.027c-0.147-0.748-0.229-1.52-0.229-2.309   c0-6.594,5.364-11.957,11.957-11.957s11.957,5.363,11.957,11.957c0,0.789-0.081,1.561-0.229,2.309h3.562   c1.83,0,3.328-1.498,3.328-3.328S95.667,77.344,93.837,77.344z M17.835,55.588v-8.859h21.246v8.859H17.835z"/></g><text x="0" y="115" fill="#000000" font-size="5px" font-weight="bold" font-family="'Helvetica Neue', Helvetica, Arial-Unicode, Arial, Sans-serif">Created by Nikita Kozin</text><text x="0" y="120" fill="#000000" font-size="5px" font-weight="bold" font-family="'Helvetica Neue', Helvetica, Arial-Unicode, Arial, Sans-serif">from the Noun Project</text></svg>